<svg xmlns="http://www.w3.org/2000/svg" xmlns:xlink="http://www.w3.org/1999/xlink" width="500" zoomAndPan="magnify" viewBox="0 0 375 374.999991" height="500" preserveAspectRatio="xMidYMid meet" version="1.0"><defs><g/><clipPath id="id1"><path d="M 87.496094 18.570312 L 279.195312 18.570312 L 279.195312 271.167969 L 87.496094 271.167969 Z M 87.496094 18.570312 " clip-rule="nonzero"/></clipPath><clipPath id="id2"><path d="M 166.980469 11.402344 L 198.347656 11.402344 L 198.347656 42.769531 L 166.980469 42.769531 Z M 166.980469 11.402344 " clip-rule="nonzero"/></clipPath><clipPath id="id3"><path d="M 123.308594 144.859375 L 154.675781 144.859375 L 154.675781 176.230469 L 123.308594 176.230469 Z M 123.308594 144.859375 " clip-rule="nonzero"/></clipPath><clipPath id="id4"><path d="M 213.035156 144.859375 L 244.40625 144.859375 L 244.40625 176.230469 L 213.035156 176.230469 Z M 213.035156 144.859375 " clip-rule="nonzero"/></clipPath><clipPath id="id5"><path d="M 166.980469 227.964844 L 198.347656 227.964844 L 198.347656 259.335938 L 166.980469 259.335938 Z M 166.980469 227.964844 " clip-rule="nonzero"/></clipPath></defs><rect x="-37.5" width="450" fill="#ffffff" y="-37.499999" height="449.999989" fill-opacity="1"/><rect x="-37.5" width="450" fill="#003845" y="-37.499999" height="449.999989" fill-opacity="1"/><rect x="-37.5" width="450" fill="#ffffff" y="-37.499999" height="449.999989" fill-opacity="1"/><rect x="-37.5" width="450" fill="#003845" y="-37.499999" height="449.999989" fill-opacity="1"/><g fill="#ffffff" fill-opacity="1"><g transform="translate(86.414959, 319.035927)"><g><path d="M 14.339844 -13.675781 L 14.339844 -9.394531 L 21.199219 -9.394531 C 20.035156 -6.773438 17.457031 -5.03125 14.382812 -5.03125 C 10.183594 -5.03125 6.941406 -8.269531 6.941406 -12.46875 C 6.941406 -16.667969 10.183594 -19.910156 14.382812 -19.910156 C 17.332031 -19.910156 19.742188 -18.332031 20.992188 -15.960938 L 25.730469 -18.414062 C 23.566406 -22.488281 19.285156 -25.273438 14.382812 -25.273438 C 7.273438 -25.273438 1.578125 -19.535156 1.578125 -12.46875 C 1.578125 -5.402344 7.273438 0.332031 14.382812 0.332031 C 21.449219 0.332031 27.183594 -5.402344 27.183594 -12.46875 L 27.183594 -13.675781 Z M 14.339844 -13.675781 "/></g></g></g><g fill="#ffffff" fill-opacity="1"><g transform="translate(114.509734, 319.035927)"><g><path d="M 12.429688 -16.957031 C 10.472656 -16.957031 8.851562 -15.960938 7.773438 -14.339844 L 7.773438 -16.625 L 2.453125 -16.625 L 2.453125 0 L 7.773438 0 L 7.773438 -7.9375 C 7.773438 -10.683594 9.644531 -12.261719 12.261719 -12.261719 C 12.886719 -12.261719 13.425781 -12.179688 13.800781 -12.09375 L 13.800781 -16.792969 C 13.425781 -16.917969 12.925781 -16.957031 12.429688 -16.957031 Z M 12.429688 -16.957031 "/></g></g></g><g fill="#ffffff" fill-opacity="1"><g transform="translate(127.559564, 319.035927)"><g><path d="M 20.992188 -4.324219 C 20.285156 -4.324219 19.535156 -4.570312 19.535156 -5.945312 L 19.535156 -16.625 L 14.257812 -16.625 L 14.257812 -15.171875 C 13.011719 -16.292969 11.429688 -16.957031 9.519531 -16.957031 C 4.90625 -16.957031 1.289062 -13.132812 1.289062 -8.3125 C 1.289062 -3.492188 4.90625 0.332031 9.519531 0.332031 C 11.929688 0.332031 13.882812 -0.75 15.210938 -2.492188 C 16.25 -0.789062 18.082031 0.332031 20.324219 0.332031 C 20.867188 0.332031 21.363281 0.167969 21.738281 0 L 21.738281 -4.324219 Z M 10.558594 -4.363281 C 8.355469 -4.363281 6.609375 -6.109375 6.609375 -8.3125 C 6.609375 -10.515625 8.355469 -12.261719 10.558594 -12.261719 C 12.71875 -12.261719 14.507812 -10.515625 14.507812 -8.3125 C 14.507812 -6.109375 12.71875 -4.363281 10.558594 -4.363281 Z M 10.558594 -4.363281 "/></g></g></g><g fill="#ffffff" fill-opacity="1"><g transform="translate(149.254004, 319.035927)"><g><path d="M 12.511719 -16.957031 C 10.597656 -16.957031 9.019531 -16.292969 7.773438 -15.171875 L 7.773438 -16.585938 L 2.453125 -16.625 L 2.453125 9.976562 L 7.773438 10.015625 L 7.773438 -1.453125 C 9.019531 -0.332031 10.597656 0.332031 12.511719 0.332031 C 17.082031 0.332031 20.699219 -3.492188 20.699219 -8.3125 C 20.699219 -13.132812 17.082031 -16.957031 12.511719 -16.957031 Z M 11.472656 -4.363281 C 9.269531 -4.363281 7.523438 -6.109375 7.523438 -8.3125 C 7.523438 -10.515625 9.269531 -12.261719 11.472656 -12.261719 C 13.675781 -12.261719 15.421875 -10.515625 15.421875 -8.3125 C 15.421875 -6.109375 13.675781 -4.363281 11.472656 -4.363281 Z M 11.472656 -4.363281 "/></g></g></g><g fill="#ffffff" fill-opacity="1"><g transform="translate(170.574412, 319.035927)"><g><path d="M 12.429688 -16.957031 C 10.597656 -16.957031 8.9375 -16.128906 7.773438 -14.753906 L 7.773438 -28.472656 L 2.453125 -28.472656 L 2.453125 0 L 7.773438 0 L 7.773438 -9.394531 C 7.773438 -10.847656 8.976562 -12.261719 10.597656 -12.261719 C 12.09375 -12.261719 13.132812 -11.097656 13.132812 -9.644531 L 13.132812 0 L 18.453125 0 L 18.453125 -10.515625 C 18.453125 -14.171875 15.792969 -16.957031 12.429688 -16.957031 Z M 12.429688 -16.957031 "/></g></g></g><g fill="#ff1616" fill-opacity="1"><g transform="translate(190.432434, 319.035927)"><g><path d="M 17.664062 -20.117188 L 17.664062 -24.9375 L 2.660156 -24.9375 L 2.660156 0 L 17.664062 0 L 17.664062 -4.820312 L 8.148438 -4.820312 L 8.148438 -10.058594 L 16.292969 -10.058594 L 16.292969 -14.878906 L 8.148438 -14.878906 L 8.148438 -20.117188 Z M 17.664062 -20.117188 "/></g></g></g><g fill="#ff1616" fill-opacity="1"><g transform="translate(209.134518, 319.035927)"><g><path d="M 12.429688 -16.957031 C 10.472656 -16.957031 8.851562 -15.960938 7.773438 -14.339844 L 7.773438 -16.625 L 2.453125 -16.625 L 2.453125 0 L 7.773438 0 L 7.773438 -7.9375 C 7.773438 -10.683594 9.644531 -12.261719 12.261719 -12.261719 C 12.886719 -12.261719 13.425781 -12.179688 13.800781 -12.09375 L 13.800781 -16.792969 C 13.425781 -16.917969 12.925781 -16.957031 12.429688 -16.957031 Z M 12.429688 -16.957031 "/></g></g></g><g fill="#ff1616" fill-opacity="1"><g transform="translate(222.184349, 319.035927)"><g><path d="M 12.429688 -16.957031 C 10.472656 -16.957031 8.851562 -15.960938 7.773438 -14.339844 L 7.773438 -16.625 L 2.453125 -16.625 L 2.453125 0 L 7.773438 0 L 7.773438 -7.9375 C 7.773438 -10.683594 9.644531 -12.261719 12.261719 -12.261719 C 12.886719 -12.261719 13.425781 -12.179688 13.800781 -12.09375 L 13.800781 -16.792969 C 13.425781 -16.917969 12.925781 -16.957031 12.429688 -16.957031 Z M 12.429688 -16.957031 "/></g></g></g><g fill="#ffffff" fill-opacity="1"><g transform="translate(235.223363, 319.035927)"><g><path d="M 28.097656 -3.949219 L 25.605469 -3.949219 L 22.488281 -2.578125 C 25.3125 -4.90625 27.140625 -8.480469 27.140625 -12.46875 C 27.140625 -19.535156 21.449219 -25.273438 14.339844 -25.273438 C 7.273438 -25.273438 1.539062 -19.535156 1.539062 -12.46875 C 1.539062 -5.402344 7.273438 0.332031 14.339844 0.332031 C 15.335938 0.332031 16.335938 0.207031 17.25 0 L 28.097656 0 Z M 6.941406 -12.46875 C 6.941406 -16.667969 10.140625 -19.910156 14.339844 -19.910156 C 18.578125 -19.910156 21.78125 -16.667969 21.78125 -12.46875 C 21.78125 -8.269531 18.578125 -5.03125 14.339844 -5.03125 C 10.140625 -5.03125 6.941406 -8.269531 6.941406 -12.46875 Z M 6.941406 -12.46875 "/></g></g></g><g fill="#ffffff" fill-opacity="1"><g transform="translate(263.318138, 319.035927)"><g><path d="M 7.9375 -4.863281 L 7.9375 -24.9375 L 2.453125 -24.9375 L 2.453125 0 L 16.210938 0 L 16.210938 -4.863281 Z M 7.9375 -4.863281 "/></g></g></g><g fill="#ffffff" fill-opacity="1"><g transform="translate(7.377543, 351.742652)"><g><path d="M 5.9375 -10.65625 C 7.53125 -10.65625 8.785156 -10.160156 9.703125 -9.171875 C 10.628906 -8.191406 11.09375 -6.875 11.09375 -5.21875 C 11.09375 -3.570312 10.628906 -2.253906 9.703125 -1.265625 C 8.785156 -0.273438 7.53125 0.21875 5.9375 0.21875 C 4.34375 0.21875 3.082031 -0.273438 2.15625 -1.265625 C 1.226562 -2.253906 0.765625 -3.570312 0.765625 -5.21875 C 0.765625 -6.875 1.222656 -8.191406 2.140625 -9.171875 C 3.066406 -10.160156 4.332031 -10.65625 5.9375 -10.65625 Z M 3.75 -2.359375 C 4.28125 -1.679688 5.007812 -1.34375 5.9375 -1.34375 C 6.863281 -1.34375 7.585938 -1.6875 8.109375 -2.375 C 8.640625 -3.0625 8.90625 -4.007812 8.90625 -5.21875 C 8.90625 -6.445312 8.640625 -7.398438 8.109375 -8.078125 C 7.585938 -8.753906 6.863281 -9.09375 5.9375 -9.09375 C 5 -9.09375 4.265625 -8.753906 3.734375 -8.078125 C 3.210938 -7.398438 2.953125 -6.445312 2.953125 -5.21875 C 2.953125 -4 3.21875 -3.046875 3.75 -2.359375 Z M 3.75 -2.359375 "/></g></g></g><g fill="#ffffff" fill-opacity="1"><g transform="translate(20.777763, 351.742652)"><g><path d="M 6.484375 -10.375 C 7.316406 -10.28125 7.992188 -9.957031 8.515625 -9.40625 C 9.035156 -8.851562 9.296875 -8.113281 9.296875 -7.1875 C 9.296875 -6.269531 9.023438 -5.535156 8.484375 -4.984375 C 7.953125 -4.429688 7.285156 -4.109375 6.484375 -4.015625 C 6.046875 -3.960938 5.539062 -3.9375 4.96875 -3.9375 L 3.4375 -3.9375 L 3.4375 0 L 1.34375 0 L 1.34375 -10.453125 L 4.96875 -10.453125 C 5.550781 -10.453125 6.054688 -10.425781 6.484375 -10.375 Z M 5.859375 -5.625 C 6.679688 -5.75 7.09375 -6.269531 7.09375 -7.1875 C 7.09375 -8.101562 6.679688 -8.625 5.859375 -8.75 C 5.628906 -8.78125 5.320312 -8.796875 4.9375 -8.796875 L 3.4375 -8.796875 L 3.4375 -5.59375 L 4.9375 -5.59375 C 5.320312 -5.59375 5.628906 -5.601562 5.859375 -5.625 Z M 5.859375 -5.625 "/></g></g></g><g fill="#ffffff" fill-opacity="1"><g transform="translate(32.028006, 351.742652)"><g><path d="M 9.515625 -8.8125 L 5.984375 -8.8125 L 5.984375 0 L 3.890625 0 L 3.890625 -8.8125 L 0.34375 -8.8125 L 0.34375 -10.453125 L 9.515625 -10.453125 Z M 9.515625 -8.8125 "/></g></g></g><g fill="#ffffff" fill-opacity="1"><g transform="translate(43.278248, 351.742652)"><g><path d="M 3.4375 0 L 1.34375 0 L 1.34375 -10.453125 L 3.4375 -10.453125 Z M 3.4375 0 "/></g></g></g><g fill="#ffffff" fill-opacity="1"><g transform="translate(49.516917, 351.742652)"><g><path d="M 12.609375 -10.453125 L 12.609375 0 L 10.515625 0 L 10.515625 -4.828125 C 10.515625 -6.484375 10.523438 -7.675781 10.546875 -8.40625 C 10.265625 -7.195312 9.941406 -6.007812 9.578125 -4.84375 L 8.109375 0 L 5.84375 0 L 4.34375 -4.859375 C 3.957031 -6.140625 3.644531 -7.316406 3.40625 -8.390625 C 3.425781 -7.660156 3.4375 -6.472656 3.4375 -4.828125 L 3.4375 0 L 1.34375 0 L 1.34375 -10.453125 L 4.640625 -10.453125 L 7.015625 -1.921875 L 9.375 -10.453125 Z M 12.609375 -10.453125 "/></g></g></g><g fill="#ffffff" fill-opacity="1"><g transform="translate(64.915708, 351.742652)"><g><path d="M 3.4375 0 L 1.34375 0 L 1.34375 -10.453125 L 3.4375 -10.453125 Z M 3.4375 0 "/></g></g></g><g fill="#ffffff" fill-opacity="1"><g transform="translate(71.15438, 351.742652)"><g><path d="M 9.03125 -1.65625 L 9.03125 0 L 0.75 0 L 0.75 -1.59375 L 6.46875 -8.8125 L 1.1875 -8.8125 L 1.1875 -10.453125 L 8.953125 -10.453125 L 8.953125 -8.828125 L 3.28125 -1.65625 Z M 9.03125 -1.65625 "/></g></g></g><g fill="#ffffff" fill-opacity="1"><g transform="translate(82.389485, 351.742652)"><g><path d="M 3.4375 0 L 1.34375 0 L 1.34375 -10.453125 L 3.4375 -10.453125 Z M 3.4375 0 "/></g></g></g><g fill="#ffffff" fill-opacity="1"><g transform="translate(88.628157, 351.742652)"><g><path d="M 10.515625 0 L 7.65625 0 L 3.359375 -7.9375 C 3.410156 -6.988281 3.4375 -5.914062 3.4375 -4.71875 L 3.4375 0 L 1.34375 0 L 1.34375 -10.453125 L 4.125 -10.453125 L 8.515625 -2.359375 C 8.460938 -3.296875 8.4375 -4.390625 8.4375 -5.640625 L 8.4375 -10.453125 L 10.5 -10.453125 Z M 10.515625 0 "/></g></g></g><g fill="#ffffff" fill-opacity="1"><g transform="translate(101.952678, 351.742652)"><g><path d="M 6.125 -5.328125 L 10.34375 -5.328125 L 10.34375 0 L 8.65625 0 L 8.53125 -1.703125 L 8.0625 -0.640625 C 7.476562 -0.0664062 6.628906 0.21875 5.515625 0.21875 C 4.054688 0.21875 2.898438 -0.265625 2.046875 -1.234375 C 1.191406 -2.203125 0.765625 -3.507812 0.765625 -5.15625 C 0.765625 -6.832031 1.25 -8.164062 2.21875 -9.15625 C 3.1875 -10.15625 4.421875 -10.65625 5.921875 -10.65625 C 7.285156 -10.65625 8.347656 -10.320312 9.109375 -9.65625 C 9.878906 -9 10.320312 -8.132812 10.4375 -7.0625 L 10.453125 -6.90625 L 8.359375 -6.90625 L 8.328125 -7.0625 C 8.054688 -8.414062 7.242188 -9.09375 5.890625 -9.09375 C 5.035156 -9.09375 4.335938 -8.75 3.796875 -8.0625 C 3.253906 -7.382812 2.984375 -6.457031 2.984375 -5.28125 C 2.984375 -4.019531 3.242188 -3.046875 3.765625 -2.359375 C 4.296875 -1.679688 4.984375 -1.34375 5.828125 -1.34375 C 6.503906 -1.34375 7.066406 -1.550781 7.515625 -1.96875 C 7.960938 -2.382812 8.238281 -2.957031 8.34375 -3.6875 L 6.125 -3.6875 Z M 6.125 -5.328125 "/></g></g></g><g fill="#ffffff" fill-opacity="1"><g transform="translate(114.928961, 351.742652)"><g/></g></g><g fill="#ffffff" fill-opacity="1"><g transform="translate(119.683832, 351.742652)"><g><path d="M 6.125 -5.328125 L 10.34375 -5.328125 L 10.34375 0 L 8.65625 0 L 8.53125 -1.703125 L 8.0625 -0.640625 C 7.476562 -0.0664062 6.628906 0.21875 5.515625 0.21875 C 4.054688 0.21875 2.898438 -0.265625 2.046875 -1.234375 C 1.191406 -2.203125 0.765625 -3.507812 0.765625 -5.15625 C 0.765625 -6.832031 1.25 -8.164062 2.21875 -9.15625 C 3.1875 -10.15625 4.421875 -10.65625 5.921875 -10.65625 C 7.285156 -10.65625 8.347656 -10.320312 9.109375 -9.65625 C 9.878906 -9 10.320312 -8.132812 10.4375 -7.0625 L 10.453125 -6.90625 L 8.359375 -6.90625 L 8.328125 -7.0625 C 8.054688 -8.414062 7.242188 -9.09375 5.890625 -9.09375 C 5.035156 -9.09375 4.335938 -8.75 3.796875 -8.0625 C 3.253906 -7.382812 2.984375 -6.457031 2.984375 -5.28125 C 2.984375 -4.019531 3.242188 -3.046875 3.765625 -2.359375 C 4.296875 -1.679688 4.984375 -1.34375 5.828125 -1.34375 C 6.503906 -1.34375 7.066406 -1.550781 7.515625 -1.96875 C 7.960938 -2.382812 8.238281 -2.957031 8.34375 -3.6875 L 6.125 -3.6875 Z M 6.125 -5.328125 "/></g></g></g><g fill="#ffffff" fill-opacity="1"><g transform="translate(132.660115, 351.742652)"><g><path d="M 8.921875 -2.640625 C 9.046875 -1.390625 9.296875 -0.507812 9.671875 0 L 7.390625 0 C 7.140625 -0.695312 6.96875 -1.472656 6.875 -2.328125 C 6.726562 -3.515625 6.257812 -4.132812 5.46875 -4.1875 C 5.269531 -4.195312 4.992188 -4.203125 4.640625 -4.203125 L 3.4375 -4.203125 L 3.4375 0 L 1.34375 0 L 1.34375 -10.453125 L 5.15625 -10.453125 C 5.738281 -10.453125 6.242188 -10.425781 6.671875 -10.375 C 7.503906 -10.269531 8.171875 -9.992188 8.671875 -9.546875 C 9.171875 -9.097656 9.421875 -8.445312 9.421875 -7.59375 C 9.421875 -6.9375 9.238281 -6.394531 8.875 -5.96875 C 8.507812 -5.539062 8.007812 -5.238281 7.375 -5.0625 C 8.269531 -4.71875 8.785156 -3.910156 8.921875 -2.640625 Z M 3.4375 -5.765625 L 4.875 -5.765625 C 5.289062 -5.765625 5.570312 -5.769531 5.71875 -5.78125 C 6.71875 -5.875 7.21875 -6.375 7.21875 -7.28125 C 7.21875 -7.757812 7.097656 -8.109375 6.859375 -8.328125 C 6.628906 -8.554688 6.289062 -8.703125 5.84375 -8.765625 C 5.601562 -8.796875 5.3125 -8.8125 4.96875 -8.8125 L 3.4375 -8.8125 Z M 3.4375 -5.765625 "/></g></g></g><g fill="#ffffff" fill-opacity="1"><g transform="translate(144.379711, 351.742652)"><g><path d="M 7.015625 -3.15625 L 3.5 -3.15625 L 2.453125 0 L 0.234375 0 L 4 -10.453125 L 6.609375 -10.453125 L 10.3125 0 L 8.046875 0 Z M 5.265625 -8.65625 L 4.03125 -4.796875 L 6.484375 -4.796875 Z M 5.265625 -8.65625 "/></g></g></g><g fill="#ffffff" fill-opacity="1"><g transform="translate(156.43241, 351.742652)"><g><path d="M 6.484375 -10.375 C 7.316406 -10.28125 7.992188 -9.957031 8.515625 -9.40625 C 9.035156 -8.851562 9.296875 -8.113281 9.296875 -7.1875 C 9.296875 -6.269531 9.023438 -5.535156 8.484375 -4.984375 C 7.953125 -4.429688 7.285156 -4.109375 6.484375 -4.015625 C 6.046875 -3.960938 5.539062 -3.9375 4.96875 -3.9375 L 3.4375 -3.9375 L 3.4375 0 L 1.34375 0 L 1.34375 -10.453125 L 4.96875 -10.453125 C 5.550781 -10.453125 6.054688 -10.425781 6.484375 -10.375 Z M 5.859375 -5.625 C 6.679688 -5.75 7.09375 -6.269531 7.09375 -7.1875 C 7.09375 -8.101562 6.679688 -8.625 5.859375 -8.75 C 5.628906 -8.78125 5.320312 -8.796875 4.9375 -8.796875 L 3.4375 -8.796875 L 3.4375 -5.59375 L 4.9375 -5.59375 C 5.320312 -5.59375 5.628906 -5.601562 5.859375 -5.625 Z M 5.859375 -5.625 "/></g></g></g><g fill="#ffffff" fill-opacity="1"><g transform="translate(167.68265, 351.742652)"><g><path d="M 10.40625 -10.453125 L 10.40625 0 L 8.328125 0 L 8.328125 -4.28125 L 3.4375 -4.28125 L 3.4375 0 L 1.34375 0 L 1.34375 -10.453125 L 3.4375 -10.453125 L 3.4375 -5.953125 L 8.328125 -5.953125 L 8.328125 -10.453125 Z M 10.40625 -10.453125 "/></g></g></g><g fill="#ffffff" fill-opacity="1"><g transform="translate(180.886041, 351.742652)"><g><path d="M 9.46875 -1.5625 C 10.0625 -1.414062 10.660156 -1.09375 11.265625 -0.59375 L 10.21875 0.75 C 9.738281 0.4375 9.347656 0.226562 9.046875 0.125 C 8.742188 0.0195312 8.429688 -0.03125 8.109375 -0.03125 C 7.796875 -0.03125 7.429688 0.015625 7.015625 0.109375 C 6.703125 0.179688 6.34375 0.21875 5.9375 0.21875 C 4.34375 0.21875 3.082031 -0.273438 2.15625 -1.265625 C 1.226562 -2.253906 0.765625 -3.570312 0.765625 -5.21875 C 0.765625 -6.875 1.226562 -8.195312 2.15625 -9.1875 C 3.082031 -10.175781 4.34375 -10.671875 5.9375 -10.671875 C 7.53125 -10.671875 8.785156 -10.175781 9.703125 -9.1875 C 10.628906 -8.195312 11.09375 -6.875 11.09375 -5.21875 C 11.09375 -3.625 10.550781 -2.40625 9.46875 -1.5625 Z M 3.734375 -8.078125 C 3.210938 -7.398438 2.953125 -6.445312 2.953125 -5.21875 C 2.953125 -4 3.21875 -3.046875 3.75 -2.359375 C 4.28125 -1.679688 5.007812 -1.34375 5.9375 -1.34375 C 6.863281 -1.34375 7.585938 -1.6875 8.109375 -2.375 C 8.640625 -3.0625 8.90625 -4.007812 8.90625 -5.21875 C 8.90625 -6.445312 8.640625 -7.398438 8.109375 -8.078125 C 7.585938 -8.753906 6.863281 -9.09375 5.9375 -9.09375 C 5 -9.09375 4.265625 -8.753906 3.734375 -8.078125 Z M 3.734375 -8.078125 "/></g></g></g><g fill="#ffffff" fill-opacity="1"><g transform="translate(194.28626, 351.742652)"><g><path d="M 8.890625 -1.734375 L 8.890625 0 L 1.34375 0 L 1.34375 -10.453125 L 3.4375 -10.453125 L 3.4375 -1.734375 Z M 8.890625 -1.734375 "/></g></g></g><g fill="#ffffff" fill-opacity="1"><g transform="translate(205.248829, 351.742652)"><g/></g></g><g fill="#ffffff" fill-opacity="1"><g transform="translate(210.003712, 351.742652)"><g><path d="M 8.890625 -1.65625 L 8.890625 0 L 1.34375 0 L 1.34375 -10.453125 L 8.734375 -10.453125 L 8.734375 -8.8125 L 3.4375 -8.8125 L 3.4375 -6.0625 L 8.359375 -6.0625 L 8.359375 -4.40625 L 3.4375 -4.40625 L 3.4375 -1.65625 Z M 8.890625 -1.65625 "/></g></g></g><g fill="#ffffff" fill-opacity="1"><g transform="translate(221.147968, 351.742652)"><g><path d="M 8.921875 -2.640625 C 9.046875 -1.390625 9.296875 -0.507812 9.671875 0 L 7.390625 0 C 7.140625 -0.695312 6.96875 -1.472656 6.875 -2.328125 C 6.726562 -3.515625 6.257812 -4.132812 5.46875 -4.1875 C 5.269531 -4.195312 4.992188 -4.203125 4.640625 -4.203125 L 3.4375 -4.203125 L 3.4375 0 L 1.34375 0 L 1.34375 -10.453125 L 5.15625 -10.453125 C 5.738281 -10.453125 6.242188 -10.425781 6.671875 -10.375 C 7.503906 -10.269531 8.171875 -9.992188 8.671875 -9.546875 C 9.171875 -9.097656 9.421875 -8.445312 9.421875 -7.59375 C 9.421875 -6.9375 9.238281 -6.394531 8.875 -5.96875 C 8.507812 -5.539062 8.007812 -5.238281 7.375 -5.0625 C 8.269531 -4.71875 8.785156 -3.910156 8.921875 -2.640625 Z M 3.4375 -5.765625 L 4.875 -5.765625 C 5.289062 -5.765625 5.570312 -5.769531 5.71875 -5.78125 C 6.71875 -5.875 7.21875 -6.375 7.21875 -7.28125 C 7.21875 -7.757812 7.097656 -8.109375 6.859375 -8.328125 C 6.628906 -8.554688 6.289062 -8.703125 5.84375 -8.765625 C 5.601562 -8.796875 5.3125 -8.8125 4.96875 -8.8125 L 3.4375 -8.8125 Z M 3.4375 -5.765625 "/></g></g></g><g fill="#ffffff" fill-opacity="1"><g transform="translate(232.867564, 351.742652)"><g><path d="M 8.921875 -2.640625 C 9.046875 -1.390625 9.296875 -0.507812 9.671875 0 L 7.390625 0 C 7.140625 -0.695312 6.96875 -1.472656 6.875 -2.328125 C 6.726562 -3.515625 6.257812 -4.132812 5.46875 -4.1875 C 5.269531 -4.195312 4.992188 -4.203125 4.640625 -4.203125 L 3.4375 -4.203125 L 3.4375 0 L 1.34375 0 L 1.34375 -10.453125 L 5.15625 -10.453125 C 5.738281 -10.453125 6.242188 -10.425781 6.671875 -10.375 C 7.503906 -10.269531 8.171875 -9.992188 8.671875 -9.546875 C 9.171875 -9.097656 9.421875 -8.445312 9.421875 -7.59375 C 9.421875 -6.9375 9.238281 -6.394531 8.875 -5.96875 C 8.507812 -5.539062 8.007812 -5.238281 7.375 -5.0625 C 8.269531 -4.71875 8.785156 -3.910156 8.921875 -2.640625 Z M 3.4375 -5.765625 L 4.875 -5.765625 C 5.289062 -5.765625 5.570312 -5.769531 5.71875 -5.78125 C 6.71875 -5.875 7.21875 -6.375 7.21875 -7.28125 C 7.21875 -7.757812 7.097656 -8.109375 6.859375 -8.328125 C 6.628906 -8.554688 6.289062 -8.703125 5.84375 -8.765625 C 5.601562 -8.796875 5.3125 -8.8125 4.96875 -8.8125 L 3.4375 -8.8125 Z M 3.4375 -5.765625 "/></g></g></g><g fill="#ffffff" fill-opacity="1"><g transform="translate(244.58716, 351.742652)"><g><path d="M 5.9375 -10.65625 C 7.53125 -10.65625 8.785156 -10.160156 9.703125 -9.171875 C 10.628906 -8.191406 11.09375 -6.875 11.09375 -5.21875 C 11.09375 -3.570312 10.628906 -2.253906 9.703125 -1.265625 C 8.785156 -0.273438 7.53125 0.21875 5.9375 0.21875 C 4.34375 0.21875 3.082031 -0.273438 2.15625 -1.265625 C 1.226562 -2.253906 0.765625 -3.570312 0.765625 -5.21875 C 0.765625 -6.875 1.222656 -8.191406 2.140625 -9.171875 C 3.066406 -10.160156 4.332031 -10.65625 5.9375 -10.65625 Z M 3.75 -2.359375 C 4.28125 -1.679688 5.007812 -1.34375 5.9375 -1.34375 C 6.863281 -1.34375 7.585938 -1.6875 8.109375 -2.375 C 8.640625 -3.0625 8.90625 -4.007812 8.90625 -5.21875 C 8.90625 -6.445312 8.640625 -7.398438 8.109375 -8.078125 C 7.585938 -8.753906 6.863281 -9.09375 5.9375 -9.09375 C 5 -9.09375 4.265625 -8.753906 3.734375 -8.078125 C 3.210938 -7.398438 2.953125 -6.445312 2.953125 -5.21875 C 2.953125 -4 3.21875 -3.046875 3.75 -2.359375 Z M 3.75 -2.359375 "/></g></g></g><g fill="#ffffff" fill-opacity="1"><g transform="translate(257.987389, 351.742652)"><g><path d="M 8.921875 -2.640625 C 9.046875 -1.390625 9.296875 -0.507812 9.671875 0 L 7.390625 0 C 7.140625 -0.695312 6.96875 -1.472656 6.875 -2.328125 C 6.726562 -3.515625 6.257812 -4.132812 5.46875 -4.1875 C 5.269531 -4.195312 4.992188 -4.203125 4.640625 -4.203125 L 3.4375 -4.203125 L 3.4375 0 L 1.34375 0 L 1.34375 -10.453125 L 5.15625 -10.453125 C 5.738281 -10.453125 6.242188 -10.425781 6.671875 -10.375 C 7.503906 -10.269531 8.171875 -9.992188 8.671875 -9.546875 C 9.171875 -9.097656 9.421875 -8.445312 9.421875 -7.59375 C 9.421875 -6.9375 9.238281 -6.394531 8.875 -5.96875 C 8.507812 -5.539062 8.007812 -5.238281 7.375 -5.0625 C 8.269531 -4.71875 8.785156 -3.910156 8.921875 -2.640625 Z M 3.4375 -5.765625 L 4.875 -5.765625 C 5.289062 -5.765625 5.570312 -5.769531 5.71875 -5.78125 C 6.71875 -5.875 7.21875 -6.375 7.21875 -7.28125 C 7.21875 -7.757812 7.097656 -8.109375 6.859375 -8.328125 C 6.628906 -8.554688 6.289062 -8.703125 5.84375 -8.765625 C 5.601562 -8.796875 5.3125 -8.8125 4.96875 -8.8125 L 3.4375 -8.8125 Z M 3.4375 -5.765625 "/></g></g></g><g fill="#ffffff" fill-opacity="1"><g transform="translate(269.706986, 351.742652)"><g/></g></g><g fill="#ffffff" fill-opacity="1"><g transform="translate(274.461868, 351.742652)"><g><path d="M 10.40625 -10.453125 L 10.40625 0 L 8.328125 0 L 8.328125 -4.28125 L 3.4375 -4.28125 L 3.4375 0 L 1.34375 0 L 1.34375 -10.453125 L 3.4375 -10.453125 L 3.4375 -5.953125 L 8.328125 -5.953125 L 8.328125 -10.453125 Z M 10.40625 -10.453125 "/></g></g></g><g fill="#ffffff" fill-opacity="1"><g transform="translate(287.665259, 351.742652)"><g><path d="M 7.015625 -3.15625 L 3.5 -3.15625 L 2.453125 0 L 0.234375 0 L 4 -10.453125 L 6.609375 -10.453125 L 10.3125 0 L 8.046875 0 Z M 5.265625 -8.65625 L 4.03125 -4.796875 L 6.484375 -4.796875 Z M 5.265625 -8.65625 "/></g></g></g><g fill="#ffffff" fill-opacity="1"><g transform="translate(299.71797, 351.742652)"><g><path d="M 10.515625 0 L 7.65625 0 L 3.359375 -7.9375 C 3.410156 -6.988281 3.4375 -5.914062 3.4375 -4.71875 L 3.4375 0 L 1.34375 0 L 1.34375 -10.453125 L 4.125 -10.453125 L 8.515625 -2.359375 C 8.460938 -3.296875 8.4375 -4.390625 8.4375 -5.640625 L 8.4375 -10.453125 L 10.5 -10.453125 Z M 10.515625 0 "/></g></g></g><g fill="#ffffff" fill-opacity="1"><g transform="translate(313.042486, 351.742652)"><g><path d="M 6.28125 -10.390625 C 7.570312 -10.234375 8.609375 -9.734375 9.390625 -8.890625 C 10.179688 -8.054688 10.578125 -6.878906 10.578125 -5.359375 C 10.578125 -3.828125 10.171875 -2.597656 9.359375 -1.671875 C 8.554688 -0.742188 7.519531 -0.207031 6.25 -0.0625 C 5.894531 -0.0195312 5.453125 0 4.921875 0 L 1.34375 0 L 1.34375 -10.453125 L 4.953125 -10.453125 C 5.484375 -10.453125 5.925781 -10.429688 6.28125 -10.390625 Z M 5.78125 -1.703125 C 6.582031 -1.796875 7.210938 -2.160156 7.671875 -2.796875 C 8.140625 -3.429688 8.375 -4.273438 8.375 -5.328125 C 8.375 -6.335938 8.144531 -7.132812 7.6875 -7.71875 C 7.238281 -8.300781 6.617188 -8.644531 5.828125 -8.75 C 5.515625 -8.789062 5.140625 -8.8125 4.703125 -8.8125 L 3.4375 -8.8125 L 3.4375 -1.65625 L 4.671875 -1.65625 C 5.191406 -1.65625 5.5625 -1.671875 5.78125 -1.703125 Z M 5.78125 -1.703125 "/></g></g></g><g fill="#ffffff" fill-opacity="1"><g transform="translate(325.927915, 351.742652)"><g><path d="M 8.890625 -1.734375 L 8.890625 0 L 1.34375 0 L 1.34375 -10.453125 L 3.4375 -10.453125 L 3.4375 -1.734375 Z M 8.890625 -1.734375 "/></g></g></g><g fill="#ffffff" fill-opacity="1"><g transform="translate(336.890484, 351.742652)"><g><path d="M 3.4375 0 L 1.34375 0 L 1.34375 -10.453125 L 3.4375 -10.453125 Z M 3.4375 0 "/></g></g></g><g fill="#ffffff" fill-opacity="1"><g transform="translate(343.129162, 351.742652)"><g><path d="M 10.515625 0 L 7.65625 0 L 3.359375 -7.9375 C 3.410156 -6.988281 3.4375 -5.914062 3.4375 -4.71875 L 3.4375 0 L 1.34375 0 L 1.34375 -10.453125 L 4.125 -10.453125 L 8.515625 -2.359375 C 8.460938 -3.296875 8.4375 -4.390625 8.4375 -5.640625 L 8.4375 -10.453125 L 10.5 -10.453125 Z M 10.515625 0 "/></g></g></g><g fill="#ffffff" fill-opacity="1"><g transform="translate(356.453677, 351.742652)"><g><path d="M 6.125 -5.328125 L 10.34375 -5.328125 L 10.34375 0 L 8.65625 0 L 8.53125 -1.703125 L 8.0625 -0.640625 C 7.476562 -0.0664062 6.628906 0.21875 5.515625 0.21875 C 4.054688 0.21875 2.898438 -0.265625 2.046875 -1.234375 C 1.191406 -2.203125 0.765625 -3.507812 0.765625 -5.15625 C 0.765625 -6.832031 1.25 -8.164062 2.21875 -9.15625 C 3.1875 -10.15625 4.421875 -10.65625 5.921875 -10.65625 C 7.285156 -10.65625 8.347656 -10.320312 9.109375 -9.65625 C 9.878906 -9 10.320312 -8.132812 10.4375 -7.0625 L 10.453125 -6.90625 L 8.359375 -6.90625 L 8.328125 -7.0625 C 8.054688 -8.414062 7.242188 -9.09375 5.890625 -9.09375 C 5.035156 -9.09375 4.335938 -8.75 3.796875 -8.0625 C 3.253906 -7.382812 2.984375 -6.457031 2.984375 -5.28125 C 2.984375 -4.019531 3.242188 -3.046875 3.765625 -2.359375 C 4.296875 -1.679688 4.984375 -1.34375 5.828125 -1.34375 C 6.503906 -1.34375 7.066406 -1.550781 7.515625 -1.96875 C 7.960938 -2.382812 8.238281 -2.957031 8.34375 -3.6875 L 6.125 -3.6875 Z M 6.125 -5.328125 "/></g></g></g><g clip-path="url(#id1)"><path fill="#078aa8" d="M 235.011719 160.082031 L 235.011719 127.378906 C 235.011719 105.644531 229.464844 84.085938 218.980469 65.023438 L 198.363281 27.550781 C 195.324219 22.03125 189.515625 18.601562 183.195312 18.601562 C 183.183594 18.601562 183.175781 18.601562 183.164062 18.601562 C 176.828125 18.613281 171.015625 22.0625 167.996094 27.609375 L 147.488281 65.203125 C 137.148438 84.160156 131.683594 105.574219 131.683594 127.148438 L 131.683594 160.085938 C 106.730469 163.703125 87.496094 185.15625 87.496094 211.003906 L 87.496094 241.570312 C 87.496094 257.820312 100.761719 271.03125 117.066406 271.03125 C 133.332031 271.03125 146.574219 257.871094 146.632812 241.675781 C 146.632812 241.640625 146.644531 241.609375 146.644531 241.570312 L 146.644531 195.542969 L 176.84375 248.558594 C 177.019531 248.867188 177.210938 249.152344 177.425781 249.429688 C 177.441406 249.449219 177.464844 249.472656 177.480469 249.492188 C 177.742188 249.824219 178.03125 250.121094 178.332031 250.390625 C 178.410156 250.460938 178.488281 250.53125 178.566406 250.59375 C 178.914062 250.886719 179.285156 251.152344 179.671875 251.371094 C 179.679688 251.371094 179.679688 251.375 179.683594 251.375 C 179.773438 251.429688 179.875 251.464844 179.964844 251.511719 C 180.152344 251.609375 180.34375 251.710938 180.539062 251.789062 C 180.757812 251.878906 180.980469 251.945312 181.199219 252.011719 C 181.28125 252.039062 181.359375 252.070312 181.441406 252.09375 C 181.75 252.171875 182.058594 252.238281 182.375 252.277344 C 182.375 252.277344 182.378906 252.277344 182.378906 252.277344 C 182.699219 252.320312 183.019531 252.34375 183.335938 252.34375 C 183.335938 252.34375 183.339844 252.34375 183.339844 252.34375 C 183.339844 252.34375 183.34375 252.34375 183.34375 252.34375 C 183.980469 252.34375 184.625 252.257812 185.253906 252.09375 C 185.296875 252.082031 185.339844 252.0625 185.382812 252.050781 C 185.644531 251.976562 185.90625 251.894531 186.164062 251.789062 C 186.433594 251.679688 186.695312 251.550781 186.953125 251.40625 C 186.980469 251.390625 187 251.386719 187.027344 251.371094 C 187.417969 251.148438 187.785156 250.882812 188.132812 250.589844 C 188.210938 250.519531 188.292969 250.449219 188.371094 250.382812 C 188.671875 250.109375 188.953125 249.816406 189.210938 249.492188 C 189.230469 249.464844 189.257812 249.445312 189.28125 249.417969 C 189.488281 249.148438 189.679688 248.855469 189.855469 248.550781 L 220.046875 195.101562 L 220.046875 241.59375 C 220.046875 257.839844 233.3125 271.050781 249.617188 271.050781 C 265.921875 271.050781 279.1875 257.835938 279.1875 241.59375 L 279.1875 211.027344 C 279.195312 185.15625 259.964844 163.703125 235.011719 160.082031 Z M 131.691406 234.128906 L 131.683594 234.128906 L 131.683594 241.578125 C 131.683594 249.605469 125.125 256.140625 117.066406 256.140625 C 109.007812 256.140625 102.449219 249.609375 102.449219 241.578125 L 102.449219 211.011719 C 102.449219 193.394531 115.015625 178.652344 131.683594 175.207031 L 131.683594 234.128906 Z M 183.324219 229.742188 L 151.023438 173.050781 C 164.589844 169.847656 176.101562 161.300781 183.15625 149.75 C 190.222656 161.308594 201.75 169.863281 215.332031 173.054688 Z M 220.058594 158.835938 C 203.308594 155.535156 190.640625 140.796875 190.640625 123.160156 L 190.640625 104.230469 C 190.640625 100.113281 187.292969 96.78125 183.164062 96.78125 C 179.03125 96.78125 175.6875 100.113281 175.6875 104.230469 L 175.6875 123.160156 C 175.6875 140.671875 163.207031 155.316406 146.648438 158.769531 L 146.648438 127.148438 C 146.648438 108.058594 151.484375 89.097656 160.636719 72.324219 L 181.144531 34.730469 C 181.722656 33.671875 182.683594 33.511719 183.199219 33.511719 C 183.199219 33.511719 183.207031 33.511719 183.207031 33.511719 C 183.722656 33.511719 184.679688 33.671875 185.261719 34.722656 L 205.875 72.195312 C 215.164062 89.066406 220.066406 108.148438 220.066406 127.390625 L 220.066406 158.835938 Z M 264.242188 234.128906 L 264.242188 241.578125 C 264.242188 249.605469 257.6875 256.140625 249.628906 256.140625 C 241.570312 256.140625 235.015625 249.609375 235.015625 241.578125 L 235.015625 175.203125 C 251.683594 178.652344 264.246094 193.390625 264.246094 211.003906 L 264.246094 234.128906 Z M 264.242188 234.128906 " fill-opacity="1" fill-rule="nonzero"/></g><g clip-path="url(#id2)"><path fill="#ffffff" d="M 198.347656 27.085938 C 198.347656 28.113281 198.25 29.136719 198.046875 30.144531 C 197.847656 31.15625 197.550781 32.136719 197.15625 33.085938 C 196.761719 34.039062 196.277344 34.941406 195.707031 35.800781 C 195.132812 36.65625 194.484375 37.449219 193.753906 38.175781 C 193.027344 38.902344 192.234375 39.554688 191.378906 40.125 C 190.523438 40.699219 189.617188 41.179688 188.667969 41.574219 C 187.714844 41.96875 186.734375 42.265625 185.722656 42.46875 C 184.714844 42.667969 183.695312 42.769531 182.664062 42.769531 C 181.632812 42.769531 180.613281 42.667969 179.605469 42.46875 C 178.59375 42.265625 177.613281 41.96875 176.660156 41.574219 C 175.710938 41.179688 174.804688 40.699219 173.949219 40.125 C 173.09375 39.554688 172.300781 38.902344 171.574219 38.175781 C 170.84375 37.449219 170.195312 36.65625 169.621094 35.800781 C 169.050781 34.941406 168.566406 34.039062 168.171875 33.085938 C 167.78125 32.136719 167.480469 31.15625 167.28125 30.144531 C 167.082031 29.136719 166.980469 28.113281 166.980469 27.085938 C 166.980469 26.054688 167.082031 25.035156 167.28125 24.023438 C 167.480469 23.015625 167.78125 22.035156 168.171875 21.082031 C 168.566406 20.132812 169.050781 19.226562 169.621094 18.371094 C 170.195312 17.515625 170.84375 16.722656 171.574219 15.996094 C 172.300781 15.265625 173.09375 14.617188 173.949219 14.042969 C 174.804688 13.472656 175.710938 12.988281 176.660156 12.59375 C 177.613281 12.199219 178.59375 11.902344 179.605469 11.703125 C 180.613281 11.5 181.632812 11.402344 182.664062 11.402344 C 183.695312 11.402344 184.714844 11.5 185.722656 11.703125 C 186.734375 11.902344 187.714844 12.199219 188.667969 12.59375 C 189.617188 12.988281 190.523438 13.472656 191.378906 14.042969 C 192.234375 14.617188 193.027344 15.265625 193.753906 15.996094 C 194.484375 16.722656 195.132812 17.515625 195.707031 18.371094 C 196.277344 19.226562 196.761719 20.132812 197.15625 21.082031 C 197.550781 22.035156 197.847656 23.015625 198.046875 24.023438 C 198.25 25.035156 198.347656 26.054688 198.347656 27.085938 Z M 198.347656 27.085938 " fill-opacity="1" fill-rule="nonzero"/></g><g clip-path="url(#id3)"><path fill="#ffffff" d="M 154.675781 160.546875 C 154.675781 161.574219 154.574219 162.59375 154.375 163.605469 C 154.175781 164.617188 153.875 165.597656 153.484375 166.546875 C 153.089844 167.5 152.605469 168.402344 152.035156 169.257812 C 151.460938 170.117188 150.8125 170.90625 150.082031 171.636719 C 149.355469 172.363281 148.5625 173.015625 147.707031 173.585938 C 146.851562 174.160156 145.945312 174.640625 144.996094 175.035156 C 144.042969 175.429688 143.0625 175.726562 142.050781 175.929688 C 141.042969 176.128906 140.023438 176.230469 138.992188 176.230469 C 137.960938 176.230469 136.941406 176.128906 135.933594 175.929688 C 134.921875 175.726562 133.941406 175.429688 132.988281 175.035156 C 132.039062 174.640625 131.132812 174.160156 130.277344 173.585938 C 129.421875 173.015625 128.628906 172.363281 127.902344 171.636719 C 127.171875 170.90625 126.523438 170.117188 125.949219 169.257812 C 125.378906 168.402344 124.894531 167.5 124.5 166.546875 C 124.105469 165.597656 123.808594 164.617188 123.609375 163.605469 C 123.40625 162.59375 123.308594 161.574219 123.308594 160.546875 C 123.308594 159.515625 123.40625 158.496094 123.609375 157.484375 C 123.808594 156.476562 124.105469 155.496094 124.5 154.542969 C 124.894531 153.589844 125.378906 152.6875 125.949219 151.832031 C 126.523438 150.976562 127.171875 150.183594 127.902344 149.453125 C 128.628906 148.726562 129.421875 148.078125 130.277344 147.503906 C 131.132812 146.933594 132.039062 146.449219 132.988281 146.054688 C 133.941406 145.660156 134.921875 145.363281 135.933594 145.164062 C 136.941406 144.960938 137.960938 144.859375 138.992188 144.859375 C 140.023438 144.859375 141.042969 144.960938 142.050781 145.164062 C 143.0625 145.363281 144.042969 145.660156 144.996094 146.054688 C 145.945312 146.449219 146.851562 146.933594 147.707031 147.503906 C 148.5625 148.078125 149.355469 148.726562 150.082031 149.453125 C 150.8125 150.183594 151.460938 150.976562 152.035156 151.832031 C 152.605469 152.6875 153.089844 153.589844 153.484375 154.542969 C 153.875 155.496094 154.175781 156.476562 154.375 157.484375 C 154.574219 158.496094 154.675781 159.515625 154.675781 160.546875 Z M 154.675781 160.546875 " fill-opacity="1" fill-rule="nonzero"/></g><g clip-path="url(#id4)"><path fill="#ffffff" d="M 244.40625 160.546875 C 244.40625 161.574219 244.304688 162.59375 244.105469 163.605469 C 243.902344 164.617188 243.605469 165.597656 243.210938 166.546875 C 242.816406 167.5 242.332031 168.402344 241.761719 169.257812 C 241.191406 170.117188 240.539062 170.90625 239.8125 171.636719 C 239.082031 172.363281 238.289062 173.015625 237.433594 173.585938 C 236.578125 174.160156 235.675781 174.640625 234.722656 175.035156 C 233.769531 175.429688 232.789062 175.726562 231.78125 175.929688 C 230.769531 176.128906 229.75 176.230469 228.71875 176.230469 C 227.691406 176.230469 226.671875 176.128906 225.660156 175.929688 C 224.652344 175.726562 223.667969 175.429688 222.71875 175.035156 C 221.765625 174.640625 220.863281 174.160156 220.007812 173.585938 C 219.148438 173.015625 218.359375 172.363281 217.628906 171.636719 C 216.902344 170.90625 216.25 170.117188 215.679688 169.257812 C 215.105469 168.402344 214.625 167.5 214.230469 166.546875 C 213.835938 165.597656 213.539062 164.617188 213.335938 163.605469 C 213.136719 162.59375 213.035156 161.574219 213.035156 160.546875 C 213.035156 159.515625 213.136719 158.496094 213.335938 157.484375 C 213.539062 156.476562 213.835938 155.496094 214.230469 154.542969 C 214.625 153.589844 215.105469 152.6875 215.679688 151.832031 C 216.25 150.976562 216.902344 150.183594 217.628906 149.453125 C 218.359375 148.726562 219.148438 148.078125 220.007812 147.503906 C 220.863281 146.933594 221.765625 146.449219 222.71875 146.054688 C 223.667969 145.660156 224.652344 145.363281 225.660156 145.164062 C 226.671875 144.960938 227.691406 144.859375 228.71875 144.859375 C 229.75 144.859375 230.769531 144.960938 231.78125 145.164062 C 232.789062 145.363281 233.769531 145.660156 234.722656 146.054688 C 235.675781 146.449219 236.578125 146.933594 237.433594 147.503906 C 238.289062 148.078125 239.082031 148.726562 239.8125 149.453125 C 240.539062 150.183594 241.191406 150.976562 241.761719 151.832031 C 242.332031 152.6875 242.816406 153.589844 243.210938 154.542969 C 243.605469 155.496094 243.902344 156.476562 244.105469 157.484375 C 244.304688 158.496094 244.40625 159.515625 244.40625 160.546875 Z M 244.40625 160.546875 " fill-opacity="1" fill-rule="nonzero"/></g><g clip-path="url(#id5)"><path fill="#ffffff" d="M 198.347656 243.652344 C 198.347656 244.679688 198.25 245.699219 198.046875 246.710938 C 197.847656 247.722656 197.550781 248.703125 197.15625 249.652344 C 196.761719 250.605469 196.277344 251.507812 195.707031 252.363281 C 195.132812 253.222656 194.484375 254.011719 193.753906 254.742188 C 193.027344 255.46875 192.234375 256.121094 191.378906 256.691406 C 190.523438 257.265625 189.617188 257.746094 188.667969 258.140625 C 187.714844 258.535156 186.734375 258.832031 185.722656 259.035156 C 184.714844 259.234375 183.695312 259.335938 182.664062 259.335938 C 181.632812 259.335938 180.613281 259.234375 179.605469 259.035156 C 178.59375 258.832031 177.613281 258.535156 176.660156 258.140625 C 175.710938 257.746094 174.804688 257.265625 173.949219 256.691406 C 173.09375 256.121094 172.300781 255.46875 171.574219 254.742188 C 170.84375 254.011719 170.195312 253.222656 169.621094 252.363281 C 169.050781 251.507812 168.566406 250.605469 168.171875 249.652344 C 167.78125 248.703125 167.480469 247.722656 167.28125 246.710938 C 167.082031 245.699219 166.980469 244.679688 166.980469 243.652344 C 166.980469 242.621094 167.082031 241.601562 167.28125 240.589844 C 167.480469 239.582031 167.78125 238.601562 168.171875 237.648438 C 168.566406 236.699219 169.050781 235.792969 169.621094 234.9375 C 170.195312 234.082031 170.84375 233.289062 171.574219 232.558594 C 172.300781 231.832031 173.09375 231.183594 173.949219 230.609375 C 174.804688 230.039062 175.710938 229.554688 176.660156 229.160156 C 177.613281 228.765625 178.59375 228.46875 179.605469 228.269531 C 180.613281 228.066406 181.632812 227.964844 182.664062 227.964844 C 183.695312 227.964844 184.714844 228.066406 185.722656 228.269531 C 186.734375 228.46875 187.714844 228.765625 188.667969 229.160156 C 189.617188 229.554688 190.523438 230.039062 191.378906 230.609375 C 192.234375 231.183594 193.027344 231.832031 193.753906 232.558594 C 194.484375 233.289062 195.132812 234.082031 195.707031 234.9375 C 196.277344 235.792969 196.761719 236.699219 197.15625 237.648438 C 197.550781 238.601562 197.847656 239.582031 198.046875 240.589844 C 198.25 241.601562 198.347656 242.621094 198.347656 243.652344 Z M 198.347656 243.652344 " fill-opacity="1" fill-rule="nonzero"/></g></svg>